<?xml version="1.0" encoding="utf-8"?>
<!-- Generator: Adobe Illustrator 25.0.0, SVG Export Plug-In . SVG Version: 6.00 Build 0)  -->
<svg version="1.1" id="Capa_1" xmlns="http://www.w3.org/2000/svg" xmlns:xlink="http://www.w3.org/1999/xlink" x="0px" y="0px"
	 viewBox="0 0 800 800" style="enable-background:new 0 0 800 800;" xml:space="preserve">
<style type="text/css">
	.st0{fill:#FFFFFF;}
</style>
<path class="st0" d="M400,800C179,800,0,621,0,400S179,0,400,0s400,179,400,400S621,800,400,800z M446.6,568.4L324.8,451.6h294.5
	c21.5,0,38.7-17.3,38.7-38.7v-25.8c0-21.5-17.3-38.7-38.7-38.7H324.8l121.8-116.8c15.6-15,16-40,0.6-55.3l-17.7-17.6
	c-15.2-15.2-39.7-15.2-54.7,0l-214,213.9c-15.2,15.2-15.2,39.7,0,54.7l214,214.2c15.2,15.2,39.7,15.2,54.7,0l17.7-17.6
	C462.6,608.4,462.3,583.4,446.6,568.4z"/>
</svg>
