<?xml version="1.0" encoding="utf-8"?>
<!-- Generator: Adobe Illustrator 25.0.0, SVG Export Plug-In . SVG Version: 6.00 Build 0)  -->
<svg version="1.1" id="Capa_1" xmlns="http://www.w3.org/2000/svg" xmlns:xlink="http://www.w3.org/1999/xlink" x="0px" y="0px"
	 viewBox="0 0 800 800" style="enable-background:new 0 0 800 800;" xml:space="preserve">
<style type="text/css">
	.st0{fill:#FCFCFC;}
</style>
<g id="icons_Q2">
	<path class="st0" d="M403.8,1C184.1-2.2,3.5,178,0.3,403.5C-2.2,584,110.9,744.8,278.5,799c18.4,3.8,33.1-17,33.1-34v-54.8
		c-110.5,24.6-145.5-54.8-145.5-54.8c-7.2-23.9-21.3-45.1-40.5-60.5c-36.8-26.5,1.8-24.6,1.8-24.6c24.9,2,47.5,16.1,60.8,37.8
		c31.3,54.8,101.3,49.2,123.4,39.7c-1.9-18.8,1.3-37.8,9.2-54.8c-125.2-22.7-193.3-98.3-193.3-200.4
		c-1.3-53.3,17.9-104.9,53.4-143.7c-20.2-38.3-18-84.9,5.5-121c44.9,0.9,87.6,20.7,117.8,54.8c32-11.2,65.7-16.3,99.4-15.1
		c33.6-1.1,67.2,3.4,99.4,13.2c30.7-33.2,73.2-52.3,117.8-52.9c23,36.2,25.8,82.2,7.4,121c34.9,39.1,53.4,90.7,51.6,143.7
		c0,102.1-68.1,177.7-193.3,200.4c8,17.1,11.1,36,9.2,54.8V765c0,18.8,14.8,34.1,33.1,34.1c0.6,0,1.3,0,1.9-0.1
		c208.5-74.3,318.9-308.1,246.5-522.2C722,113.1,572.5,2.7,403.8,1z"/>
</g>
</svg>
