<?xml version="1.0" encoding="utf-8"?>
<!-- Generator: Adobe Illustrator 25.0.0, SVG Export Plug-In . SVG Version: 6.00 Build 0)  -->
<svg version="1.1" id="Capa_1" xmlns="http://www.w3.org/2000/svg" xmlns:xlink="http://www.w3.org/1999/xlink" x="0px" y="0px"
	 viewBox="0 0 800 800" style="enable-background:new 0 0 800 800;" xml:space="preserve">
<style type="text/css">
	.st0{fill:#FFFFFF;}
</style>
<path class="st0" d="M800,400c0,220.9-179.1,400-400,400S0,621,0,400S179.1,0,400,0S800,179.1,800,400L800,400z M650.1,224.7
	c0-22.1-17.9-40-40-40H189.9c-22.1-0.8-40.6,16.5-41.4,38.6c-0.8,22.1,16.5,40.6,38.6,41.4c0.9,0,1.9,0,2.8,0h420.2
	C632.2,264.7,650.1,246.8,650.1,224.7L650.1,224.7z M650.1,400.9c0-22.1-17.9-40-40-40H189.9c-22.1-0.8-40.6,16.5-41.4,38.6
	c-0.8,22.1,16.5,40.6,38.6,41.4c0.9,0,1.9,0,2.8,0h420.2C632.2,440.9,650.1,423,650.1,400.9z M650.1,577.1c0-22.1-17.9-40-40-40
	H189.9c-22.1-0.8-40.6,16.5-41.4,38.6c-0.8,22.1,16.5,40.6,38.6,41.4c0.9,0,1.9,0,2.8,0h420.2C632.2,617.1,650.1,599.2,650.1,577.1z
	"/>
</svg>
