<?xml version="1.0" encoding="utf-8"?>
<!-- Generator: Adobe Illustrator 25.0.0, SVG Export Plug-In . SVG Version: 6.00 Build 0)  -->
<svg version="1.1" id="_x32_" xmlns="http://www.w3.org/2000/svg" xmlns:xlink="http://www.w3.org/1999/xlink" x="0px" y="0px"
	 viewBox="0 0 800 800" style="enable-background:new 0 0 800 800;" xml:space="preserve">
<style type="text/css">
	.st0{fill:#FFFFFF;}
</style>
<polygon class="st0" points="302.2,407.8 330.1,407.8 497.8,407.8 487.6,522.5 400,544.8 312.4,522.5 306.3,454.2 217,454.2 
	229.3,593.3 400,636.7 570.7,593.3 594.4,326.2 295,326.2 287.1,237 602.3,237 610.2,148 189.8,148 212.9,407.8 "/>
<path class="st0" d="M31.8,0l1.5,16.6l65.4,706.8L400,800l301.2-76.6L768.2,0H31.8z M628.9,661.7L400,719.9l-228.9-58.2L117,77.7
	h566L628.9,661.7z"/>
</svg>
