<?xml version="1.0" encoding="utf-8"?>
<!-- Generator: Adobe Illustrator 25.0.0, SVG Export Plug-In . SVG Version: 6.00 Build 0)  -->
<svg version="1.1" id="Layer_1" xmlns="http://www.w3.org/2000/svg" xmlns:xlink="http://www.w3.org/1999/xlink" x="0px" y="0px"
	 viewBox="0 0 800 800" style="enable-background:new 0 0 800 800;" xml:space="preserve">
<style type="text/css">
	.st0{fill-rule:evenodd;clip-rule:evenodd;fill:#FFFFFF;}
</style>
<g>
	<path class="st0" d="M433.2,359.3v-1.2c-0.2,0.4-0.6,0.8-0.8,1.2H433.2z"/>
	<path class="st0" d="M7.4,76.8v646.5c0,42.4,33.9,76.8,75.7,76.8h637.8c41.8,0,75.7-34.4,75.7-76.8V76.8
		c0-42.4-33.9-76.8-75.7-76.8H83.1C41.3,0,7.4,34.4,7.4,76.8z M252.9,664.6H135.8V307.5h117.1V664.6z M194.3,258.8h-0.8
		c-39.3,0-64.7-27.4-64.7-61.7c0-35,26.2-61.7,66.3-61.7c40.1,0,64.7,26.7,65.5,61.7C260.6,231.4,235.2,258.8,194.3,258.8z
		 M675.2,664.6H558.1v-191c0-48-16.9-80.7-59.3-80.7c-32.4,0-51.6,22.1-60.1,43.4c-3.1,7.6-3.9,18.2-3.9,28.9v199.4H317.6
		c0,0,1.6-323.6,0-357.1h117.2v50.6c15.6-24.3,43.3-59,105.6-59c77.1,0,134.9,51,134.9,160.7V664.6z"/>
</g>
</svg>
