<?xml version="1.0" encoding="utf-8"?>
<!-- Generator: Adobe Illustrator 25.0.0, SVG Export Plug-In . SVG Version: 6.00 Build 0)  -->
<svg version="1.1" id="Camada_1" xmlns="http://www.w3.org/2000/svg" xmlns:xlink="http://www.w3.org/1999/xlink" x="0px" y="0px"
	 viewBox="0 0 800 800" style="enable-background:new 0 0 800 800;" xml:space="preserve">
<style type="text/css">
	.st0{fill:#FFFFFF;}
</style>
<g>
	<path class="st0" d="M341.1,500.7c19.6,2.5,39.3,2.5,58.9,2.5s39.3,0,58.9-2.5c12.3-14.7,22.1-31.9,31.9-49.1
		c9.8-17.2,19.6-34.4,27-51.6c-7.4-17.2-17.2-34.4-27-51.6c-9.8-19.6-22.1-36.8-31.9-51.6c-19.6-2.5-39.3-2.5-58.9-2.5
		s-39.3,0-58.9,2.5c-9.8,17.2-22.1,34.4-31.9,51.6c-9.8,17.2-19.6,34.4-27,51.6c7.4,17.2,17.2,34.4,27,51.6
		C321.4,468.7,331.3,485.9,341.1,500.7z M360.2,352c66-42.6,132.8,24.3,90.2,90.2c-1.5,2.3-3.4,4.2-5.7,5.7
		c-66,42.6-132.8-24.3-90.2-90.2C355.9,355.4,357.9,353.5,360.2,352z"/>
	<path class="st0" d="M498.2,301.8c7.4,9.8,12.3,19.6,19.6,29.5c7.4,12.3,12.3,22.1,14.7,31.9c7.4-17.2,14.7-34.4,19.6-51.6
		C535,306.7,517.8,304.3,498.2,301.8z"/>
	<path class="st0" d="M535,436.8c-4.9,9.8-9.8,22.1-17.2,29.5c-4.9,9.8-12.3,19.6-17.2,29.5c17.2-2.5,34.4-4.9,51.6-9.8
		C547.3,471.2,542.4,454,535,436.8z"/>
	<path class="st0" d="M400,262.5c12.3,0,22.1,0,34.4,0c-12.3-12.3-22.1-27-34.4-39.3c-9.8,12.3-22.1,27-34.4,39.3
		C377.9,262.5,387.7,262.5,400,262.5z"/>
	<path class="st0" d="M562,282.2c2.5-12.3,4.9-27,7.4-39.3c7.4-51.6,0-90.8-19.6-100.7c-2.5-4.9-7.4-4.9-14.7-4.9
		c-27,0-68.7,22.1-112.9,63.8c19.6,19.6,36.8,41.7,54,66.3C508,272.3,535,274.8,562,282.2z"/>
	<path class="st0" d="M299.3,498.2c-4.9-9.8-9.8-19.6-17.2-29.5c-7.4-9.8-12.3-19.6-17.2-29.5c-4.9,14.7-12.3,31.9-17.2,49.1
		C265,493.3,282.2,495.7,299.3,498.2z"/>
	<path class="st0" d="M299.3,301.8c-19.6,2.5-36.8,4.9-54,9.8c7.4,17.2,12.3,34.4,19.6,51.6c7.4-9.8,12.3-19.6,14.7-31.9
		C287.1,321.4,292,311.6,299.3,301.8z"/>
	<path class="st0" d="M625.9,331.3c-12.3-4.9-27-7.4-39.3-12.3c-9.8,27-19.6,54-31.9,81c12.3,27,22.1,54,29.5,78.6
		c14.7-2.5,27-7.4,39.3-12.3c46.6-19.6,76.1-46.6,78.6-68.7C702,375.4,672.5,350.9,625.9,331.3z"/>
	<path class="st0" d="M238,279.7c27-7.4,56.5-12.3,85.9-14.7c17.2-24.6,36.8-46.6,54-66.3c-44.2-41.7-83.5-63.8-110.5-63.8
		c-4.9,0-9.8,2.5-14.7,4.9c-19.6,12.3-27,49.1-19.6,100.7C233.1,252.7,235.5,267.4,238,279.7z"/>
	<path class="st0" d="M705.9,0H94.1C42.2,0,0,42.2,0,94.1v611.7c0,52,42.2,94.1,94.1,94.1h611.7c52,0,94.1-42.2,94.1-94.1V94.1
		C800,42.2,757.8,0,705.9,0z M596.4,510.5c19.6,85.9,12.3,154.7-27,176.8c-9.8,4.9-19.6,7.4-31.9,7.4c-39.3,0-85.9-27-135-73.7
		c-49.1,46.6-98.2,73.7-135,73.7c-12.3,0-22.1-2.5-31.9-7.4c-39.3-22.1-46.6-90.8-27-176.8C122.6,485.9,68.6,446.6,68.6,400
		c0-44.2,56.5-85.9,139.9-110.5c-19.6-85.9-12.3-152.2,24.6-176.8c9.8-4.9,19.6-7.4,31.9-7.4c39.3,0,85.9,27,135,73.7
		c49.1-46.6,98.2-73.7,135-73.7c12.3,0,22.1,2.5,31.9,7.4c39.3,24.6,46.6,90.8,24.6,176.8c85.9,24.6,139.9,63.8,139.9,110.5
		C731.4,444.2,677.4,485.9,596.4,510.5z"/>
	<path class="st0" d="M400,535c-9.8,0-22.1,0-34.4,0c9.8,14.7,22.1,29.5,34.4,41.7c12.3-12.3,24.6-27,34.4-41.7
		C424.6,535,412.3,535,400,535z"/>
	<path class="st0" d="M562,522.8c-24.6,4.9-54,9.8-83.5,12.3c-17.2,24.6-34.4,46.6-54,66.3c44.2,41.7,83.5,63.8,110.5,63.8
		c4.9,0,9.8-2.5,14.7-4.9c19.6-12.3,27-49.1,19.6-100.7C566.9,544.8,564.5,532.6,562,522.8z"/>
	<path class="st0" d="M238,517.8c-2.5,14.7-4.9,29.5-7.4,41.7c-7.4,51.6,0,90.8,19.6,100.7c4.9,0,9.8,2.5,14.7,0
		c27,0,66.3-22.1,110.5-63.8c-17.2-19.6-36.8-41.7-54-66.3C292,527.7,265,522.8,238,517.8z"/>
	<path class="st0" d="M215.9,321.4c-14.7,2.5-27,7.4-39.3,12.3c-46.6,19.6-76.1,44.2-76.1,66.3c0,19.6,31.9,46.6,78.6,66.3
		c12.3,4.9,24.6,9.8,39.3,14.7c7.4-24.6,17.2-51.6,29.5-78.6C233.1,375.4,223.2,348.4,215.9,321.4z"/>
</g>
</svg>
