<?xml version="1.0" encoding="utf-8"?>
<!-- Generator: Adobe Illustrator 25.0.0, SVG Export Plug-In . SVG Version: 6.00 Build 0)  -->
<svg version="1.1" id="Capa_1" xmlns="http://www.w3.org/2000/svg" xmlns:xlink="http://www.w3.org/1999/xlink" x="0px" y="0px"
	 viewBox="0 0 800 800" style="enable-background:new 0 0 800 800;" xml:space="preserve">
<style type="text/css">
	.st0{fill:#FFFFFF;}
</style>
<path class="st0" d="M800,400c0,220.9-179.1,400-400,400S0,620.9,0,400S179.1,0,400,0c220.9,0,400,179,400,399.9
	C800,399.9,800,400,800,400z M456.2,400.5l153.2-153.2c15.5-15.8,15.2-41.1-0.6-56.6c-15.6-15.2-40.5-15.2-56,0L399.7,343.9
	L246.4,190.7c-15.8-15.5-41.1-15.2-56.6,0.6c-15.2,15.6-15.2,40.5,0,56l153.3,153.2L189.9,553.7c-15.1,16.1-14.3,41.4,1.8,56.6
	c15.4,14.4,39.4,14.4,54.8,0L399.6,457l153.2,153.2c15.8,15.5,41.1,15.2,56.6-0.6c15.2-15.6,15.2-40.5,0-56L456.2,400.5z"/>
</svg>
