<?xml version="1.0" encoding="utf-8"?>
<!-- Generator: Adobe Illustrator 25.0.0, SVG Export Plug-In . SVG Version: 6.00 Build 0)  -->
<svg version="1.1" id="Capa_1" xmlns="http://www.w3.org/2000/svg" xmlns:xlink="http://www.w3.org/1999/xlink" x="0px" y="0px"
	 viewBox="0 0 800 800" style="enable-background:new 0 0 800 800;" xml:space="preserve">
<style type="text/css">
	.st0{fill:#FFFFFF;}
</style>
<path class="st0" d="M705.5,0H94.5C42.3,0,0,42.3,0,94.5v610.9C0,757.7,42.3,800,94.5,800h610.9c52.2,0,94.5-42.3,94.5-94.5V94.5
	C800,42.3,757.7,0,705.5,0z M400,612.4c-87.7,0-127.9-40.8-162.6-76c-21.3-21.7-40.6-41.2-67.5-47.9c-47.2-11.8-88.5,5.9-123.9,53.1
	C69.7,447.2,128.7,400,223,400c87.8,0,127.9,40.8,162.6,76c21.3,21.7,40.6,41.2,67.5,47.9c47.2,11.8,88.5-5.9,123.9-53.1
	C553.4,565.2,494.4,612.4,400,612.4z M577,400c-87.7,0-127.9-40.8-162.6-76c-21.3-21.7-40.6-41.2-67.5-47.9
	c-47.2-11.8-88.5,5.9-123.9,53.1c23.6-94.4,82.6-141.6,177-141.6c87.8,0,127.9,40.8,162.6,76c21.3,21.7,40.6,41.2,67.5,47.9
	c47.2,11.8,88.5-5.9,123.9-53.1C730.4,352.8,671.4,400,577,400z"/>
</svg>
